<svg xmlns="http://www.w3.org/2000/svg" viewBox="0 0 1600 1000" width="1600" height="1000" role="img" aria-label="Κατασκευαστικό έργο — placeholder">
  <defs>
    <pattern id="h0" width="46" height="46" patternUnits="userSpaceOnUse" patternTransform="rotate(45)">
      <rect width="46" height="46" fill="none"/>
      <line x1="0" y1="0" x2="0" y2="46" stroke="#d8a83b" stroke-opacity="0.13" stroke-width="10"/>
    </pattern>
  </defs>

  <rect width="1600" height="1000" fill="#0e3157"/>
  <rect width="1600" height="1000" fill="url(#h0)"/>

  <rect x="78" y="78" width="1444" height="844" fill="#071d38" fill-opacity="0.55"
        stroke="#d8a83b" stroke-opacity="0.55" stroke-width="4" stroke-dasharray="22 16" rx="10"/>

  <g transform="translate(800 380) scale(1.022)" fill="none" stroke="#f0c75b" stroke-opacity="0.85"
     stroke-width="7" stroke-linejoin="round" stroke-linecap="round">
    <path d="M-96 76 L-96 -60 L4 -60 L4 76"/>
    <path d="M4 76 L4 -12 L96 -12 L96 76"/>
    <path d="M-116 76 L116 76"/>
    <path d="M-68 -30 L-24 -30 M-68 6 L-24 6 M-68 42 L-24 42"/>
    <path d="M34 18 L66 18 M34 48 L66 48"/>
  </g>

  <text x="800" y="615" text-anchor="middle" fill="#f0c75b" fill-opacity="0.95"
        font-family="Inter, 'Segoe UI', Arial, sans-serif" font-size="51" font-weight="700"
        letter-spacing="11">PLACEHOLDER</text>

  <text x="800" y="705" text-anchor="middle" fill="#ffffff" fill-opacity="0.92"
        font-family="Inter, 'Segoe UI', Arial, sans-serif" font-size="47" font-weight="600">Κατασκευαστικό έργο</text>

  <text x="800" y="785" text-anchor="middle" fill="#dce4ee" fill-opacity="0.7"
        font-family="Inter, 'Segoe UI', Arial, sans-serif" font-size="30">Αναμονή φωτογραφίας</text>
</svg>
